<svg xmlns="http://www.w3.org/2000/svg" width="64" height="64" id="bitcoin-btc"><circle cx="32" cy="32" r="26.5" fill="#FFF"></circle><path fill="#FFE57F" d="M58 32c0-11.868-7.996-21.897-18.881-25.001A26.644 26.644 0 0 0 34 6.5C19.365 6.5 7.5 18.365 7.5 33c0 7.773 3.348 14.765 8.679 19.612A25.86 25.86 0 0 0 32 58c14.337 0 26-11.663 26-26z"></path><path fill="#FFD740" d="M42.852 7.825C50.99 12.349 56.5 21.029 56.5 31c0 14.635-11.865 26.5-26.5 26.5-3.868 0-7.539-.836-10.852-2.325A26.373 26.373 0 0 0 32 58.5c14.635 0 26.5-11.865 26.5-26.5 0-10.767-6.426-20.027-15.648-24.175z"></path><path fill="#37474F" d="M32 59C17.112 59 5 46.888 5 32S17.112 5 32 5s27 12.112 27 27-12.112 27-27 27zm0-53C17.663 6 6 17.663 6 32s11.663 26 26 26 26-11.663 26-26S46.337 6 32 6z"></path><circle cx="32" cy="32" r="22.5" fill="#FFD740"></circle><path fill="#FFCA28" d="M11.5 33c0-12.426 10.074-22.5 22.5-22.5 3.212 0 6.265.678 9.029 1.892A22.38 22.38 0 0 0 32 9.5C19.574 9.5 9.5 19.574 9.5 32c0 9.214 5.541 17.129 13.471 20.608C16.126 48.75 11.5 41.417 11.5 33z"></path><path fill="#FFE57F" d="M41.029 11.392C47.874 15.25 52.5 22.583 52.5 31c0 12.426-10.074 22.5-22.5 22.5-3.212 0-6.265-.678-9.029-1.892A22.38 22.38 0 0 0 32 54.5c12.426 0 22.5-10.074 22.5-22.5 0-9.214-5.541-17.129-13.471-20.608z"></path><path fill="#37474F" d="M32 55C19.317 55 9 44.683 9 32S19.317 9 32 9s23 10.317 23 23-10.317 23-23 23zm0-45c-12.131 0-22 9.869-22 22s9.869 22 22 22 22-9.869 22-22-9.869-22-22-22z"></path><path fill="#FFF" d="M44.256 28.217c.535-3.585-2.194-5.512-5.926-6.797l1.211-4.855-2.957-.736-1.179 4.728A119.21 119.21 0 0 0 33.037 20l1.187-4.758-2.954-.738-1.211 4.854c-.643-.147-5.96-1.478-5.96-1.478l-.786 3.158s2.193.501 2.146.534c1.197.298 1.415 1.09 1.378 1.718l-3.317 13.3c-.147.366-.518.91-1.354.705.029.041-2.148-.537-2.148-.537l-1.467 3.385s5.264 1.326 5.953 1.502l-1.223 4.912 2.952.737 1.212-4.859c.806.22 1.589.42 2.355.612l-1.208 4.834 2.957.737 1.223-4.901c5.04.953 8.832.568 10.425-3.99 1.286-3.67-.063-5.787-2.715-7.168 1.931-.447 3.385-1.717 3.774-4.342zm-6.753 9.471c-.915 3.67-7.094 1.688-9.099 1.188l1.623-6.506c2.004.499 8.429 1.488 7.476 5.318zm.913-9.523c-.833 3.338-5.978 1.642-7.647 1.228l1.472-5.902c1.669.416 7.043 1.191 6.175 4.674z"></path><path fill="#FFE57F" d="M33.739 43.476c1.477.279 2.71.415 3.771.415 3.225 0 5.103-1.258 6.089-4.079 1.081-3.084.317-5.106-2.474-6.56l-1.202-.625 1.32-.306c1.959-.452 3.069-1.737 3.393-3.928.425-2.845-1.299-4.772-5.593-6.251l-.434-.149 1.201-4.814-1.986-.494-1.179 4.728-.485-.121c-.773-.192-1.568-.375-2.357-.555l-.499-.112 1.19-4.769-1.983-.496-1.209 4.845-.478-.109c-.524-.12-4.156-1.026-5.484-1.358l-.542 2.178c.909.209 1.397.326 1.666.425 1.178.296 1.815 1.108 1.749 2.23l-3.331 13.392c-.351.89-1.054 1.27-1.905 1.082-.117-.015-.454-.088-1.796-.441l-1.062 2.45c1.382.348 4.835 1.218 5.384 1.358l.482.123-1.222 4.909 1.981.495 1.215-4.87.493.135c.803.219 1.583.418 2.346.609l.485.122-1.208 4.833 1.986.495 1.216-4.874.462.087zm-.987-20.342.485.121c.167.042.37.087.602.138 1.69.375 4.52 1.002 5.613 2.768.434.7.543 1.5.325 2.376-.274 1.097-1.141 2.405-3.711 2.405-1.476 0-3.03-.414-4.058-.688l-.969-.246 1.713-6.874zm-3.034 16.622-1.045-.267 1.865-7.477.485.121c.198.05.44.104.715.166 2.063.462 5.515 1.236 6.772 3.273.459.744.578 1.58.353 2.485-.29 1.163-1.241 2.55-4.123 2.55-1.802.001-3.817-.532-5.022-.851z"></path><path fill="#37474F" d="m31.913 49.225-3.927-.979 1.209-4.836c-.456-.115-.918-.234-1.388-.359L26.598 47.9l-3.922-.979 1.223-4.914-5.47-1.38-.571-.144 1.873-4.319.416.11c.645.172 1.349.354 1.752.453l.005-.011.381.093c.083.02.16.03.229.03.091 0 .367 0 .542-.437l3.295-13.234c.024-.55-.293-.933-1.013-1.111l-.331-.102c-.388-.1-1.13-.276-1.806-.431l-.497-.113 1.03-4.139.485.121s3.997 1 5.474 1.361l1.213-4.859 3.923.98-1.184 4.748c.466.106.933.215 1.394.326l1.179-4.729 3.928.979-1.22 4.901c2.931 1.066 6.454 2.978 5.825 7.191-.323 2.18-1.354 3.655-3.069 4.4 2.447 1.669 3.096 4.034 1.986 7.2-1.132 3.24-3.367 4.749-7.033 4.749-1.009 0-2.155-.114-3.492-.348l-1.23 4.933zm-2.714-1.708 1.986.495 1.216-4.874.464.088c1.477.279 2.71.415 3.771.415 3.225 0 5.103-1.258 6.089-4.079 1.081-3.084.317-5.106-2.474-6.56l-1.202-.625 1.32-.306c1.959-.452 3.069-1.737 3.393-3.928.425-2.845-1.299-4.772-5.593-6.251l-.434-.149 1.201-4.814-1.986-.494-1.179 4.728-.485-.121c-.773-.192-1.568-.375-2.357-.555l-.499-.112 1.19-4.769-1.983-.496-1.209 4.845-.478-.109c-.524-.12-4.156-1.026-5.484-1.358l-.542 2.178c.909.209 1.397.326 1.666.425 1.178.296 1.815 1.108 1.749 2.23l-3.331 13.392c-.351.89-1.054 1.27-1.905 1.082-.117-.015-.454-.088-1.796-.441l-1.062 2.45c1.382.348 4.835 1.218 5.384 1.358l.482.123-1.222 4.909 1.981.495 1.215-4.87.493.135c.803.219 1.583.418 2.346.609l.485.122-1.21 4.832zm4.667-7.159c-1.802 0-3.818-.533-5.022-.853l-1.045-.267 1.865-7.477.485.121c.198.05.44.104.715.166 2.063.462 5.515 1.236 6.772 3.273.459.744.578 1.58.353 2.485-.291 1.166-1.241 2.552-4.123 2.552zm-4.857-1.842.09.023c1.157.307 3.094.819 4.767.819 1.82 0 2.852-.586 3.152-1.792.16-.643.084-1.205-.233-1.718-1.036-1.679-4.356-2.424-6.14-2.823a55.16 55.16 0 0 0-.251-.057l-1.385 5.548zm6.181-7.825c-1.476 0-3.03-.414-4.058-.688l-.969-.246 1.714-6.874.485.121c.167.042.37.087.602.138 1.69.375 4.52 1.002 5.613 2.768.434.7.543 1.5.325 2.376-.275 1.097-1.141 2.405-3.712 2.405zm-3.816-1.658.015.005c.978.26 2.456.653 3.801.653 2.088 0 2.564-.94 2.741-1.647.152-.613.085-1.139-.205-1.607-.871-1.406-3.543-1.999-4.979-2.317l-.14-.031-1.233 4.944z"></path></svg>