<svg xmlns="http://www.w3.org/2000/svg" enable-background="new 0 0 96 96" viewBox="0 0 96 96" id="creditcard-payment"><path fill="#3f55a1" d="M0.6,53.4l50-50c1.1-1.1,2.9-1.1,4,0l32,32c1.1,1.1,1.1,2.9,0,4l-50,50c-1.1,1.1-2.9,1.1-4,0l-32-32
		C-0.5,56.3-0.5,54.5,0.6,53.4z"></path><path fill="#4e6ed3" d="M9.5,44.5L50.6,3.4c1.1-1.1,2.9-1.1,4,0l25.4,25.4c1.1,1.1,1.1,2.9,0,4L38.8,73.9c-1.1,1.1-2.9,1.1-4,0
		L9.5,48.5C8.4,47.4,8.4,45.6,9.5,44.5z"></path><path fill="#679be7" d="M31,23L50.6,3.4c1.1-1.1,2.9-1.1,4,0L70,18.9c1.1,1.1,1.1,2.9,0,4L57.5,35.5c-5,5-13,5-18,0L31,27
		C29.9,25.9,29.9,24.1,31,23z"></path><rect width="76.3" height="7.4" x="-2.4" y="34.9" fill="#505f9b" transform="rotate(-45.001 35.771 38.623)"></rect><rect width="5.6" height="7.4" x="57.9" y="9.9" fill="#8cafdc" transform="rotate(-45.001 60.755 13.625)"></rect><rect width="47.4" height="7.4" x="1.8" y="45.1" fill="#46417d" transform="rotate(-45.001 25.561 48.832)"></rect><rect width="6.9" height="7.4" x="7.8" y="59.4" fill="#3c3c69" transform="rotate(-45.001 11.237 63.143)"></rect><rect width="16.9" height="7.2" x="54.3" y="28.8" fill="#8fe6f6" transform="rotate(-45.001 62.705 32.37)"></rect><path fill="#445fba" d="M22.5,42.3h70.7c1.6,0,2.8,1.3,2.8,2.8v45.2c0,1.6-1.3,2.8-2.8,2.8H22.5c-1.6,0-2.8-1.3-2.8-2.8V45.1
		C19.7,43.5,20.9,42.3,22.5,42.3z"></path><path fill="#4e82e7" d="M29.5,42.3h63.7c1.6,0,2.8,1.3,2.8,2.8v45.2c0,1.6-1.3,2.8-2.8,2.8H29.5c-1.6,0-2.8-1.3-2.8-2.8V45.1
		C26.7,43.5,27.9,42.3,29.5,42.3z"></path><path fill="#4ebef6" d="M41.6,42.3h51.6c1.6,0,2.8,1.3,2.8,2.8v37.8c0,1.6-1.3,2.8-2.8,2.8H41.6c-1.6,0-2.8-1.3-2.8-2.8V45.1
		C38.8,43.5,40.1,42.3,41.6,42.3z"></path><path fill="#8fe6f6" d="M59.4,54.4h29.2c1.6,0,2.8,1.3,2.8,2.8v12.5c0,1.6-1.3,2.8-2.8,2.8H59.4c-1.6,0-2.8-1.3-2.8-2.8V57.2
		C56.6,55.6,57.8,54.4,59.4,54.4z"></path><rect width="17.7" height="11.1" x="26.7" y="48.8" fill="#ffd850"></rect><path fill="#ff8d50" d="M86.5,79.5c-1.1,0-4.9,0-6.1,0c-2.7,0-4.9,2.2-4.9,4.9c0,2.7,2.2,4.9,4.9,4.9c1.1,0,4.9,0,6.1,0
		c2.7,0,4.9-2.2,4.9-4.9C91.3,81.7,89.2,79.5,86.5,79.5z"></path><rect width="2" height="11.1" x="32.2" y="48.8" fill="#ffff8c"></rect><path fill="#ffff8c" d="M44.3,53.3v2H33.3c-0.6,0-1-0.4-1-1s0.4-1,1-1H44.3z"></path><path fill="#46417d" d="M26.7 72.2c-.6 0-1-.4-1-1v-3.5c0-.6.5-1 1-1s1 .5 1 1v3.5C27.7 71.8 27.3 72.2 26.7 72.2zM33.7 71.2v-3.5c0-.6.4-1 1-1s1 .4 1 1v3.5c0 .6-.4 1-1 1C34.4 72.2 33.7 72 33.7 71.2zM41.6 71.2v-3.5c0-.6.4-1 1-1s1 .4 1 1v3.5c0 .6-.4 1-1 1C42.4 72.2 41.6 72 41.6 71.2zM49.6 71.2v-3.5c0-.6.4-1 1-1s1 .4 1 1v3.5c0 .6-.4 1-1 1C50.3 72.2 49.6 72 49.6 71.2zM62.9 71.2v-3.5c0-.6.4-1 1-1s1 .4 1 1v3.5c0 .6-.4 1-1 1C63.6 72.2 62.9 72 62.9 71.2zM70.8 71.2v-3.5c0-.6.4-1 1-1s1 .4 1 1v3.5c0 .6-.4 1-1 1C71.6 72.2 70.8 72 70.8 71.2zM78.8 71.2v-3.5c0-.6.4-1 1-1s1 .4 1 1v3.5c0 .6-.4 1-1 1C79.5 72.2 78.8 72 78.8 71.2zM86.8 71.2v-3.5c0-.6.4-1 1-1s1 .4 1 1v3.5c0 .6-.4 1-1 1C87.5 72.2 86.8 72 86.8 71.2zM73.3 49.9h-1.8c-.6 0-1-.4-1-1s.4-1 1-1h1.8c.6 0 1 .4 1 1S73.8 49.9 73.3 49.9zM80.5 49.9h-1.8c-.6 0-1-.4-1-1s.4-1 1-1h1.8c.6 0 1 .4 1 1S81.1 49.9 80.5 49.9zM87.8 49.9H86c-.6 0-1-.4-1-1s.4-1 1-1h1.8c.6 0 1 .4 1 1S88.4 49.9 87.8 49.9zM32.2 80.6h-5.5c-.6 0-1-.4-1-1s.4-1 1-1h5.5c.6 0 1 .4 1 1S32.8 80.6 32.2 80.6zM42.4 80.6h-5.5c-.6 0-1-.4-1-1s.4-1 1-1h5.5c.6 0 1 .4 1 1S43 80.6 42.4 80.6zM32.2 86.8h-5.5c-.6 0-1-.4-1-1s.4-1 1-1h5.5c.6 0 1 .4 1 1S32.8 86.8 32.2 86.8zM42.4 86.8h-5.5c-.6 0-1-.4-1-1s.4-1 1-1h5.5c.6 0 1 .4 1 1S43 86.8 42.4 86.8zM52.7 80.6h-5.6c-.6 0-1-.4-1-1s.4-1 1-1h5.5c.6 0 1 .4 1 1S53.2 80.6 52.7 80.6z"></path></svg>