<svg width="58" height="34" viewBox="0 0 58 34" fill="none" xmlns="http://www.w3.org/2000/svg">
<path d="M18.6734 1.58931C19.0824 1.95021 19.4579 2.32269 19.8263 2.72475C20.1233 3.03519 20.4127 3.30396 20.7388 3.58012C21.623 4.34979 22.4431 5.18349 23.2706 6.01268C23.4518 6.19364 23.633 6.37456 23.8142 6.55546C24.3031 7.04367 24.7916 7.53236 25.2799 8.02116C25.7922 8.5339 26.3049 9.04626 26.8176 9.55868C27.6777 10.4185 28.5375 11.2787 29.3971 12.139C30.3901 13.1329 31.3837 14.1262 32.3776 15.1192C33.2325 15.9734 34.0871 16.8279 34.9414 17.6826C35.451 18.1925 35.9607 18.7022 36.4707 19.2117C36.9497 19.6903 37.4284 20.1692 37.9068 20.6485C38.0821 20.8241 38.2576 20.9995 38.4333 21.1748C38.6734 21.4145 38.913 21.6546 39.1525 21.8949C39.3536 22.0961 39.3536 22.0961 39.5588 22.3014C39.9082 22.6695 40.222 23.0526 40.5355 23.4514C41.4191 24.2823 42.5041 24.6136 43.6916 24.7408C46.4258 24.4479 48.3246 22.1809 50.0328 20.1894C50.1153 20.0983 50.1979 20.0072 50.283 19.9134C50.5635 19.5909 50.5635 19.5909 50.8314 19.152C51.3968 18.4004 51.7984 17.9746 52.7349 17.8341C54.0076 17.7607 55.2767 17.8163 56.5471 17.9089C56.3166 19.3096 54.7441 20.5291 53.7819 21.4902C53.654 21.6188 53.5262 21.7473 53.3944 21.8797C53.1259 22.1491 52.8571 22.418 52.5878 22.6866C52.1794 23.0946 51.773 23.5046 51.3667 23.9148C51.1038 24.178 50.8408 24.4411 50.5777 24.7041C50.4581 24.8251 50.3386 24.946 50.2154 25.0706C49.1631 26.1142 48.0303 27.047 46.6361 27.589C46.4856 27.649 46.3352 27.7089 46.1802 27.7706C44.3618 28.4159 42.1106 28.2763 40.3815 27.4543C38.8756 26.7305 37.6175 25.5776 36.5429 24.3101C35.7576 23.4089 34.9077 22.571 34.0639 21.7253C33.8779 21.5383 33.6919 21.3513 33.5059 21.1642C32.8992 20.5543 32.2916 19.9451 31.6841 19.336C31.4741 19.1254 31.2641 18.9147 31.0541 18.7041C30.0679 17.715 29.0814 16.7264 28.0945 15.7381C26.958 14.6002 25.8229 13.461 24.6888 12.3207C23.8098 11.437 22.9296 10.5545 22.0485 9.67292C21.5232 9.14729 20.9985 8.62118 20.475 8.0938C19.9827 7.59796 19.489 7.10361 18.9942 6.61035C18.8135 6.42972 18.6333 6.24858 18.4537 6.06686C17.1638 4.76262 15.962 3.59601 14.0354 3.54265C12.4725 3.56346 11.4402 4.20887 10.3596 5.28431C10.1204 5.55197 9.88624 5.82351 9.65254 6.09599C6.27698 10.0242 6.27698 10.0242 4.41059 10.2056C3.30531 10.2655 2.20336 10.129 1.12213 9.90306C1.71537 9.07368 2.34436 8.32842 3.06946 7.61233C3.16434 7.51752 3.25921 7.42272 3.35696 7.32505C3.5561 7.12637 3.75561 6.92806 3.95548 6.73011C4.25802 6.43038 4.55931 6.12943 4.86043 5.82827C5.71894 4.97229 6.57604 4.12493 7.5005 3.33949C7.85446 3.03125 8.17167 2.69126 8.49289 2.34947C11.306 -0.459378 15.4163 -0.627659 18.6734 1.58931Z" fill="#FC5B3F"/>
<path d="M25.4475 16.5231C25.971 16.8417 26.3587 17.1551 26.5252 17.7548C26.5385 18.5496 26.4483 18.9627 25.9117 19.5517C25.8142 19.6588 25.7167 19.766 25.6162 19.8763C25.04 20.4867 24.4537 21.0862 23.8616 21.6813C23.7267 21.8171 23.5918 21.9529 23.4527 22.0928C23.1687 22.3783 22.8844 22.6636 22.5999 22.9487C22.1681 23.382 21.7379 23.817 21.3078 24.252C21.0301 24.5306 20.7524 24.8092 20.4745 25.0876C20.3478 25.2163 20.221 25.3449 20.0905 25.4775C18.2681 27.2929 16.278 28.5119 13.6474 28.5373C10.7944 28.4187 8.8663 27.1414 6.90275 25.146C6.75599 24.9988 6.60911 24.8518 6.46212 24.7049C6.15688 24.3992 5.85268 24.0925 5.5493 23.7849C5.16392 23.3943 4.77654 23.0057 4.38842 22.6179C4.08584 22.3152 3.78407 22.0117 3.48256 21.708C3.27181 21.4958 3.06062 21.2841 2.84942 21.0723C0.660217 18.8501 0.660217 18.8501 0.660217 18.3706C2.11316 17.9594 3.71028 17.7325 5.12501 18.3706C6.97941 19.6046 8.4989 21.4544 9.94492 23.1288C10.839 24.1509 11.8047 24.8845 13.203 25.0305C14.5992 25.0893 15.6718 24.7651 16.7122 23.8175C17.7818 22.8336 18.8057 21.8023 19.8317 20.7733C20.1753 20.4289 20.5197 20.0853 20.8642 19.7418C21.0858 19.5201 21.3073 19.2984 21.5288 19.0766C21.6303 18.9754 21.7319 18.8742 21.8365 18.7699C22.3828 18.2208 22.8962 17.6626 23.3781 17.0558C23.9539 16.4725 24.6592 16.3946 25.4475 16.5231Z" fill="#FFFFFE"/>
<path d="M48.4725 1.6359C48.7374 1.87508 48.9975 2.11857 49.2563 2.36436C49.3551 2.45744 49.4539 2.55052 49.5557 2.64643C50.7697 3.79642 51.9585 4.97222 53.1423 6.15318C53.5316 6.54098 53.9225 6.92711 54.3135 7.31328C54.5622 7.56095 54.8108 7.80873 55.0592 8.05661C55.1758 8.17127 55.2924 8.28593 55.4125 8.40407C55.519 8.51112 55.6256 8.61816 55.7354 8.72845C55.8293 8.82177 55.9232 8.9151 56.02 9.01126C56.2576 9.31024 56.3309 9.52953 56.3931 9.90291C54.9424 10.2993 53.3416 10.5306 51.9284 9.90291C50.1197 8.71062 48.6412 6.90624 47.2389 5.27513C46.389 4.29972 45.5668 3.66202 44.2431 3.55393C42.1627 3.5067 41.2449 4.20396 39.7656 5.59207C39.2525 6.08941 38.7481 6.595 38.2453 7.10279C38.1081 7.24057 37.9709 7.37835 37.8295 7.52031C37.3968 7.9549 36.9646 8.38997 36.5325 8.8252C35.9588 9.403 35.3846 9.98025 34.8101 10.5572C34.6126 10.7566 34.6126 10.7566 34.4112 10.9601C34.2898 11.0819 34.1684 11.2038 34.0433 11.3294C33.9365 11.437 33.8297 11.5447 33.7197 11.6555C33.3487 12.0021 33.1671 12.0553 32.6547 12.1257C31.8756 12.0363 31.4886 11.7258 30.99 11.1346C30.7846 10.6514 30.8233 10.4246 30.9323 9.91253C31.292 9.11137 31.8198 8.5879 32.4774 8.02894C33.1592 7.43671 33.7921 6.80455 34.424 6.15979C34.6655 5.91558 34.9071 5.67141 35.1487 5.42729C35.5235 5.04776 35.8979 4.66789 36.2714 4.28718C36.636 3.916 37.0021 3.54634 37.3685 3.17685C37.4779 3.06456 37.5873 2.95226 37.7001 2.83657C40.5642 -0.0417811 45.0817 -1.21033 48.4725 1.6359Z" fill="#FFFFFE"/>
<path d="M48.8492 10.8267C49.4332 11.0371 49.8389 11.3252 50.2156 11.8274C50.5182 12.4999 50.5613 13.06 50.5578 13.7976C50.5573 13.9831 50.5568 14.1687 50.5563 14.3599C50.555 14.553 50.5537 14.7461 50.5524 14.9451C50.5517 15.1405 50.551 15.336 50.5503 15.5374C50.5485 16.02 50.5459 16.5025 50.5428 16.985C49.9839 16.985 49.425 16.985 48.8492 16.985C48.8492 16.2737 48.8492 15.5624 48.8492 14.8296C48.4428 14.8296 48.0363 14.8296 47.6176 14.8296C47.6176 14.3215 47.6176 13.8135 47.6176 13.29C48.024 13.29 48.4305 13.29 48.8492 13.29C48.7274 12.9821 48.7274 12.9821 48.5413 12.6742C48.3889 12.6234 48.2365 12.5726 48.0794 12.5202C47.7152 12.7996 47.6241 12.9409 47.551 13.402C47.547 13.5673 47.5429 13.7325 47.5388 13.9028C47.5333 14.0819 47.5279 14.2611 47.5222 14.4456C47.517 14.7262 47.517 14.7262 47.5117 15.0124C47.5064 15.2013 47.5012 15.3901 47.4958 15.5846C47.4831 16.0514 47.4724 16.5181 47.4636 16.985C46.9555 16.985 46.4475 16.985 45.924 16.985C45.9087 16.3442 45.8976 15.7034 45.8902 15.0624C45.8871 14.8447 45.8829 14.627 45.8776 14.4093C45.87 14.0951 45.8666 13.7811 45.8639 13.4668C45.8606 13.2782 45.8574 13.0895 45.8541 12.8951C45.962 12.0788 46.348 11.6121 46.9536 11.0769C47.6157 10.7521 48.1251 10.702 48.8492 10.8267Z" fill="#FFFFFD"/>
<path d="M55.8255 11.0192C56.4853 11.4489 56.4853 11.4489 56.7011 11.9045C56.7584 12.4802 56.7836 13.0517 56.5928 13.6028C56.508 13.9254 56.508 13.9254 56.7636 14.2048C56.8446 14.3094 56.9256 14.414 57.009 14.5218C57.1112 15.0454 57.1025 15.5364 57.009 16.0614C56.6718 16.4962 56.4193 16.7411 55.9313 16.9851C55.6428 16.9959 55.354 16.9981 55.0653 16.9947C54.9109 16.9933 54.7565 16.992 54.5974 16.9905C54.4787 16.9887 54.36 16.987 54.2378 16.9851C54.2378 16.5279 54.2378 16.0706 54.2378 15.5995C54.7712 15.5233 54.7712 15.5233 55.3155 15.4455C55.3155 15.1915 55.3155 14.9375 55.3155 14.6757C54.9598 14.6249 54.6042 14.5741 54.2378 14.5218C54.2378 14.1153 54.2378 13.7089 54.2378 13.2901C54.4918 13.1885 54.7458 13.0869 55.0076 12.9822C55.0076 12.8298 55.0076 12.6774 55.0076 12.5203C54.8043 12.5203 54.6011 12.5203 54.3917 12.5203C54.181 12.9417 54.2045 13.2967 54.189 13.7676C54.1826 13.9542 54.1761 14.1407 54.1695 14.3329C54.1634 14.5286 54.1574 14.7243 54.1512 14.9259C54.1445 15.1228 54.1379 15.3197 54.131 15.5225C54.1146 16.01 54.0989 16.4976 54.0838 16.9851C53.5757 16.9851 53.0677 16.9851 52.5442 16.9851C52.5289 16.3223 52.5178 15.6596 52.5104 14.9967C52.5073 14.7715 52.5031 14.5464 52.4978 14.3212C52.4902 13.9963 52.4868 13.6716 52.4841 13.3466C52.4809 13.1515 52.4776 12.9564 52.4743 12.7554C52.5571 12.1127 52.7557 11.7889 53.1601 11.2887C54.0328 10.6936 54.8575 10.654 55.8255 11.0192Z" fill="#FFFFFE"/>
<path d="M27.7569 3.74438C28.3728 4.05232 28.6945 4.33843 29.1738 4.8233C29.2481 4.89804 29.3224 4.97278 29.399 5.04979C29.635 5.28751 29.8699 5.52628 30.1048 5.76509C30.2651 5.92694 30.4254 6.08871 30.5859 6.25042C30.978 6.64594 31.3692 7.0424 31.7598 7.43939C31.5009 8.01522 31.1917 8.2956 30.6821 8.67105C30.2757 8.2646 29.8692 7.85815 29.4504 7.43939C28.8155 7.6932 28.8155 7.6932 28.5267 8.20918C28.9331 8.61563 29.3396 9.02208 29.7584 9.44085C29.4498 10.058 29.221 10.2744 28.6807 10.6725C28.1492 10.16 27.6202 9.64507 27.0935 9.12767C26.9139 8.95196 26.7337 8.77694 26.5527 8.60264C26.293 8.3522 26.0357 8.09937 25.7789 7.84593C25.6565 7.72946 25.6565 7.72946 25.5316 7.61064C25.3074 7.38661 25.3074 7.38661 24.9857 6.97751C24.9964 6.49361 25.1257 6.37682 25.4572 6.01527C25.5556 5.92636 25.654 5.83745 25.7554 5.74584C26.3431 5.98525 26.7088 6.36721 27.1411 6.82355C27.6278 6.61265 27.7558 6.51732 28.0648 6.05376C27.6584 5.64731 27.2519 5.24086 26.8332 4.82209C27.138 4.46645 27.4428 4.11081 27.7569 3.74438Z" fill="#FFFFFE"/>
<path d="M3.27332 11.2397C3.95581 11.5889 4.27348 11.953 4.50919 12.674C4.59237 13.2703 4.56865 13.768 4.32637 14.329C3.79025 14.9946 3.39149 15.3101 2.5366 15.4068C2.21748 15.4258 2.21748 15.4258 1.8919 15.4452C1.8919 14.9372 1.8919 14.4291 1.8919 13.9057C2.14593 13.804 2.39996 13.7024 2.66169 13.5977C2.61089 13.3437 2.56008 13.0897 2.50774 12.828C2.30451 12.8788 2.10129 12.9296 1.8919 12.9819C1.8411 14.4045 1.79029 15.8271 1.73794 17.2927C1.17907 17.2927 0.620206 17.2927 0.0444016 17.2927C0.0309279 16.5967 0.0227603 15.9008 0.0155344 15.2047C0.0116644 15.0081 0.00779438 14.8115 0.0038071 14.609C-0.0105445 12.7672 -0.0105445 12.7672 0.506277 11.9042C1.29353 11.1563 2.22314 10.8757 3.27332 11.2397Z" fill="#FC5B3F"/>
<path d="M14.7089 11.3175C15.3724 11.7548 15.6853 12.1194 15.8829 12.8956C15.9114 13.7084 15.7632 14.1613 15.2478 14.7912C14.5456 15.3658 14.0327 15.4456 13.1309 15.4456C13.1309 14.9375 13.1309 14.4294 13.1309 13.906C13.4357 13.7535 13.7405 13.6011 14.0546 13.4441C14.0546 13.2409 14.0546 13.0376 14.0546 12.8283C13.6739 12.8813 13.6739 12.8813 13.2848 12.9822C13.0784 13.3952 13.0978 13.7341 13.0822 14.1958C13.0757 14.3755 13.0693 14.5551 13.0626 14.7401C13.0535 15.0226 13.0535 15.0226 13.0443 15.3108C13.0376 15.5004 13.031 15.6899 13.0241 15.8852C13.0078 16.3544 12.992 16.8237 12.9769 17.2931C12.4688 17.2931 11.9608 17.2931 11.4373 17.2931C11.422 16.655 11.4109 16.0171 11.4035 15.3789C11.4004 15.1622 11.3962 14.9456 11.3909 14.7289C11.3366 12.4793 11.3366 12.4793 12.0532 11.5966C12.9073 10.9948 13.7511 10.9676 14.7089 11.3175Z" fill="#FC5B3F"/>
<path d="M29.9027 18.0192C30.6722 18.4305 31.176 18.9283 31.4519 19.7561C31.5387 20.6325 31.4992 21.3187 30.99 22.0655C30.3916 22.6688 29.8961 22.9645 29.0367 23.0373C28.2997 23.0251 27.7395 22.798 27.1411 22.3734C26.5572 21.7446 26.3983 21.1362 26.3466 20.2997C26.3871 19.6595 26.5955 19.183 26.9871 18.6784C27.8459 17.9948 28.8265 17.62 29.9027 18.0192ZM27.9975 19.6117C27.6821 20.2046 27.722 20.5042 27.9109 21.1417C28.2579 21.5402 28.4659 21.5947 28.9886 21.6709C29.4593 21.6369 29.4593 21.6369 29.8161 21.3534C30.1453 20.8723 30.1714 20.6365 30.0663 20.064C29.6843 19.5472 29.4591 19.3274 28.825 19.198C28.3514 19.2615 28.3514 19.2615 27.9975 19.6117Z" fill="#FFFFFE"/>
<path d="M35.7627 10.6726C38.0502 12.5866 38.0502 12.5866 38.2261 13.4439C38.1864 14.0916 38.0733 14.5203 37.6102 14.9834C37.48 15.0311 37.3498 15.0787 37.2157 15.1278C37.0919 15.1818 36.968 15.2357 36.8404 15.2914C36.7928 15.4152 36.7452 15.539 36.6961 15.6666C36.5325 16.0612 36.5325 16.0612 36.1091 16.3498C35.51 16.5572 35.2825 16.5842 34.685 16.3691C33.8356 15.7506 33.1065 14.9651 32.3756 14.2137C32.5371 13.81 32.6296 13.6296 33.0107 13.4054C33.106 13.3673 33.2012 13.3292 33.2994 13.2899C33.4914 13.4899 33.4914 13.4899 33.6873 13.694C33.8562 13.8673 34.0252 14.0405 34.1943 14.2137C34.2785 14.3018 34.3628 14.3899 34.4496 14.4807C34.6733 14.7085 34.9095 14.9239 35.1469 15.1374C35.2993 15.1374 35.4517 15.1374 35.6088 15.1374C35.3123 14.4247 34.777 13.9957 34.2225 13.4775C33.9189 13.1401 33.8186 12.9625 33.7613 12.5201C33.9645 12.3677 34.1677 12.2153 34.3771 12.0582C34.9771 12.301 35.3392 12.6913 35.782 13.1552C36.0263 13.4111 36.2753 13.6628 36.5325 13.9057C36.6341 13.9057 36.7357 13.9057 36.8404 13.9057C36.7607 13.2789 36.4467 13.0157 35.9937 12.5971C35.1759 11.8415 35.1759 11.8415 35.1469 11.2884C35.4452 10.942 35.4452 10.942 35.7627 10.6726Z" fill="#FC5B3F"/>
<path d="M21.7525 10.5188C22.1966 10.7179 22.5027 10.9282 22.8302 11.2886C22.5735 11.8954 22.1794 12.3339 21.7525 12.8282C21.8978 12.7922 21.8978 12.7922 22.046 12.7554C22.9306 12.5543 23.6383 12.4452 24.5238 12.6742C24.917 13.0372 25.0933 13.3236 25.284 13.8193C25.3016 14.543 24.919 15.0399 24.4498 15.5645C24.3123 15.6967 24.1747 15.8289 24.033 15.9651C23.825 16.1669 23.825 16.1669 23.6127 16.3728C23.5069 16.4732 23.4011 16.5737 23.2921 16.6771C22.9873 16.4231 22.6824 16.1691 22.3684 15.9073C22.4585 15.3438 22.6891 15.0536 23.0708 14.6372C23.1694 14.5284 23.2681 14.4197 23.3697 14.3076C23.4457 14.2259 23.5217 14.1441 23.6 14.0598C23.5032 14.0839 23.4063 14.1079 23.3066 14.1326C22.422 14.3338 21.7143 14.4428 20.8288 14.2138C20.3232 13.7967 20.2286 13.5152 20.0879 12.8763C20.1241 11.9263 20.9585 11.2935 21.5986 10.6728C21.6494 10.622 21.7002 10.5711 21.7525 10.5188Z" fill="#FC5B3F"/>
<path d="M40.8434 10.9805C41.4022 10.9805 41.9611 10.9805 42.5369 10.9805C42.5877 12.403 42.6385 13.8256 42.6909 15.2913C43.1989 15.3421 43.707 15.3929 44.2305 15.4453C44.2305 15.9533 44.2305 16.4614 44.2305 16.9848C43.8614 17.0016 43.4931 17.0137 43.1239 17.0233C43.0202 17.0285 42.9165 17.0337 42.8096 17.039C42.268 17.0495 41.9488 17.0013 41.4803 16.7226C40.85 16.0452 40.8056 15.4173 40.8133 14.5137C40.8137 14.4123 40.8142 14.3108 40.8146 14.2063C40.8163 13.8848 40.8202 13.5633 40.8241 13.2417C40.8257 13.0227 40.8271 12.8037 40.8283 12.5847C40.8317 12.0499 40.837 11.5152 40.8434 10.9805Z" fill="#FFFFFE"/>
<path d="M6.97253 11.2883C7.5314 11.2883 8.09027 11.2883 8.66608 11.2883C8.66608 13.2698 8.66608 15.2512 8.66608 17.2927C8.10721 17.2927 7.54834 17.2927 6.97253 17.2927C6.97253 15.3113 6.97253 13.3298 6.97253 11.2883Z" fill="#FC5B3F"/>
<path d="M24.5238 30.6873C25.2936 30.8412 25.2936 30.8412 25.6045 31.2267C25.6956 31.3821 25.7867 31.5375 25.8806 31.6976C25.9736 31.8534 26.0667 32.0092 26.1626 32.1697C26.2315 32.2902 26.3004 32.4106 26.3713 32.5348C26.4221 31.9251 26.4729 31.3154 26.5253 30.6873C26.7285 30.6873 26.9317 30.6873 27.1411 30.6873C27.1411 31.7542 27.1411 32.8211 27.1411 33.9204C26.8871 33.9204 26.633 33.9204 26.3713 33.9204C26.1065 33.584 25.9103 33.2901 25.7074 32.9197C25.6245 32.7765 25.6245 32.7765 25.5399 32.6304C25.4039 32.3947 25.2714 32.157 25.1396 31.9189C25.0888 32.5794 25.038 33.2399 24.9857 33.9204C24.8333 33.9204 24.6808 33.9204 24.5238 33.9204C24.5238 32.8535 24.5238 31.7865 24.5238 30.6873Z" fill="#CFD6EE"/>
<path d="M42.1766 30.6001C42.5369 30.6873 42.5369 30.6873 42.8153 30.9718C42.9988 31.3031 42.9988 31.3031 42.9988 31.765C42.7955 31.765 42.5923 31.765 42.3829 31.765C42.2813 31.6126 42.1797 31.4602 42.075 31.3031C41.6772 31.2646 41.6772 31.2646 41.3052 31.3031C41.1241 31.6655 41.1257 31.9006 41.1224 32.3039C41.1202 32.4261 41.118 32.5484 41.1158 32.6743C41.121 33.0306 41.121 33.0306 41.4592 33.3046C41.8569 33.3303 41.8569 33.3303 42.229 33.3046C42.2798 33.1014 42.3306 32.8981 42.3829 32.6888C42.1289 32.6888 41.8749 32.6888 41.6131 32.6888C41.6131 32.5363 41.6131 32.3839 41.6131 32.2269C42.0704 32.2269 42.5277 32.2269 42.9988 32.2269C43.0439 33.2793 43.0439 33.2793 42.9988 33.6125C42.3788 34.0258 41.8793 34.0073 41.1513 33.9204C40.6448 33.6546 40.5641 33.5444 40.3815 32.9967C40.3062 32.2683 40.2957 31.6521 40.5932 30.976C41.1296 30.5928 41.5305 30.6011 42.1766 30.6001Z" fill="#CED7EE"/>
<path d="M37.8983 30.6156C38.2261 30.6872 38.2261 30.6872 38.6206 30.9663C38.9505 31.6979 38.9543 32.3616 38.8419 33.1505C38.6206 33.6413 38.6206 33.6413 38.2261 33.9203C37.7401 34.0264 37.3264 34.0264 36.8405 33.9203C36.4459 33.6413 36.4459 33.6413 36.2246 33.1505C36.1123 32.3616 36.116 31.6979 36.4459 30.9663C36.9479 30.6112 37.2921 30.5747 37.8983 30.6156ZM36.8405 31.457C36.6771 32.1784 36.6449 32.6443 36.9944 33.3045C37.1562 33.4964 37.1562 33.4964 37.514 33.5162C37.9413 33.4981 37.9413 33.4981 38.2068 33.1505C38.4483 32.5066 38.3692 32.1286 38.2261 31.457C37.9448 31.1107 37.9448 31.1107 37.5333 31.1106C37.1217 31.1107 37.1217 31.1107 36.8405 31.457Z" fill="#CED6EE"/>
<path d="M30.3544 30.6156C30.6821 30.6872 30.6821 30.6872 31.0767 30.9663C31.4066 31.6979 31.4103 32.3616 31.298 33.1505C31.0767 33.6413 31.0767 33.6413 30.6821 33.9203C30.1962 34.0264 29.7825 34.0264 29.2965 33.9203C28.902 33.6413 28.902 33.6413 28.6807 33.1505C28.5683 32.3616 28.5721 31.6979 28.902 30.9663C29.4039 30.6112 29.7482 30.5747 30.3544 30.6156ZM29.2965 31.457C29.1332 32.1784 29.1009 32.6443 29.4505 33.3045C29.6122 33.4964 29.6122 33.4964 29.9701 33.5162C30.3973 33.4981 30.3973 33.4981 30.6629 33.1505C30.9044 32.5066 30.8253 32.1286 30.6821 31.457C30.4009 31.1107 30.4009 31.1107 29.9893 31.1106C29.5778 31.1107 29.5778 31.1107 29.2965 31.457Z" fill="#CED6EE"/>
<path d="M20.213 30.6873C20.3654 30.6873 20.5178 30.6873 20.6748 30.6873C20.6748 31.1445 20.6748 31.6018 20.6748 32.0729C21.1829 32.0729 21.691 32.0729 22.2144 32.0729C22.2144 31.6156 22.2144 31.1584 22.2144 30.6873C22.4176 30.6873 22.6209 30.6873 22.8302 30.6873C22.8302 31.7542 22.8302 32.8211 22.8302 33.9204C22.627 33.9204 22.4238 33.9204 22.2144 33.9204C22.2144 33.4631 22.2144 33.0059 22.2144 32.5348C21.7063 32.5348 21.1983 32.5348 20.6748 32.5348C20.6748 32.992 20.6748 33.4493 20.6748 33.9204C20.5224 33.9204 20.37 33.9204 20.213 33.9204C20.213 32.8535 20.213 31.7865 20.213 30.6873Z" fill="#CFD5EE"/>
<path d="M12.515 30.6873C13.2263 30.6873 13.9376 30.6873 14.6705 30.6873C14.6705 30.8397 14.6705 30.9921 14.6705 31.1491C14.1624 31.1491 13.6543 31.1491 13.1309 31.1491C13.1309 31.454 13.1309 31.7588 13.1309 32.0729C13.5881 32.0729 14.0454 32.0729 14.5165 32.0729C14.5165 32.2253 14.5165 32.3777 14.5165 32.5348C14.0592 32.5348 13.602 32.5348 13.1309 32.5348C13.1309 32.8396 13.1309 33.1444 13.1309 33.4585C13.6389 33.4585 14.147 33.4585 14.6705 33.4585C14.6705 33.6109 14.6705 33.7633 14.6705 33.9204C13.9592 33.9204 13.2479 33.9204 12.515 33.9204C12.515 32.8535 12.515 31.7865 12.515 30.6873Z" fill="#CED5EE"/>
<path d="M17.7298 30.6212C18.0575 30.6873 18.0575 30.6873 18.4521 30.9664C18.6734 31.3032 18.6734 31.3032 18.6734 31.765C18.4701 31.765 18.2669 31.765 18.0575 31.765C17.9559 31.6126 17.8543 31.4602 17.7496 31.3032C17.3518 31.2646 17.3518 31.2646 16.9798 31.3032C16.7977 31.6674 16.8053 31.8986 16.8066 32.3039C16.8062 32.4261 16.8058 32.5484 16.8054 32.6743C16.8054 33.0058 16.8054 33.0058 16.9798 33.3046C17.3518 33.3432 17.3518 33.3432 17.7496 33.3046C17.8512 33.1522 17.9528 32.9998 18.0575 32.8427C18.2608 32.8427 18.464 32.8427 18.6734 32.8427C18.5861 33.3488 18.4589 33.5977 18.0575 33.9204C17.5845 34.025 17.1474 34.0071 16.6719 33.9204C16.2774 33.6414 16.2774 33.6414 16.0561 33.1507C15.9437 32.3617 15.9474 31.698 16.2774 30.9664C16.7805 30.6105 17.1234 30.5872 17.7298 30.6212Z" fill="#D0D7EE"/>
<path d="M44.2304 30.6873C44.4845 30.6873 44.7385 30.6873 45.0002 30.6873C45.2035 31.0937 45.4067 31.5002 45.6161 31.9189C45.6887 31.7856 45.6887 31.7856 45.7628 31.6495C45.8616 31.478 45.8616 31.478 45.9625 31.3031C46.0268 31.1888 46.0911 31.0745 46.1573 30.9567C46.2327 30.8678 46.3082 30.7789 46.3859 30.6873C46.5891 30.6873 46.7923 30.6873 47.0017 30.6873C46.8445 31.2242 46.6696 31.6506 46.3762 32.1306C46.0218 32.7195 45.9717 33.2399 45.924 33.9204C45.7208 33.9204 45.5175 33.9204 45.3081 33.9204C45.3018 33.7299 45.2954 33.5393 45.2889 33.343C45.1865 32.355 44.7047 31.5443 44.2304 30.6873Z" fill="#CFD6EE"/>
<path d="M8.51212 30.6873C9.37582 30.6873 10.2395 30.6873 11.1294 30.6873C11.1294 30.8397 11.1294 30.9921 11.1294 31.1491C10.7738 31.1491 10.4181 31.1491 10.0517 31.1491C10.0517 32.0636 10.0517 32.9782 10.0517 33.9204C9.84847 33.9204 9.64525 33.9204 9.43587 33.9204C9.43587 33.0059 9.43587 32.0914 9.43587 31.1491C9.13103 31.1491 8.82619 31.1491 8.51212 31.1491C8.51212 30.9967 8.51212 30.8443 8.51212 30.6873Z" fill="#CFD6EE"/>
<path d="M32.9915 30.6873C33.1439 30.6873 33.2963 30.6873 33.4534 30.6873C33.4534 31.6018 33.4534 32.5163 33.4534 33.4585C33.9614 33.4585 34.4695 33.4585 34.9929 33.4585C34.9929 33.6109 34.9929 33.7633 34.9929 33.9204C34.3325 33.9204 33.672 33.9204 32.9915 33.9204C32.9915 32.8535 32.9915 31.7865 32.9915 30.6873Z" fill="#CED5ED"/>
</svg>
